<?xml version="1.0" encoding="UTF-8"?>
<svg xmlns="http://www.w3.org/2000/svg" xmlns:xlink="http://www.w3.org/1999/xlink" width="375pt" height="374.999991pt" viewBox="0 0 375 374.999991" version="1.2">
<g id="surface1">
<path style=" stroke:none;fill-rule:nonzero;fill:rgb(100%,100%,100%);fill-opacity:1;" d="M 187.5 0.851562 C 83.949219 0.851562 0 84.800781 0 188.351562 C 0 282.359375 69.246094 359.972656 159.476562 373.535156 L 159.476562 238.046875 L 113.089844 238.046875 L 113.089844 188.761719 L 159.476562 188.761719 L 159.476562 155.964844 C 159.476562 101.667969 185.933594 77.828125 231.058594 77.828125 C 252.671875 77.828125 264.101562 79.433594 269.515625 80.164062 L 269.515625 123.1875 L 238.730469 123.1875 C 219.570312 123.1875 212.878906 141.347656 212.878906 161.820312 L 212.878906 188.761719 L 269.027344 188.761719 L 261.410156 238.046875 L 212.878906 238.046875 L 212.878906 373.933594 C 304.398438 361.515625 375 283.269531 375 188.351562 C 375 84.800781 291.050781 0.851562 187.5 0.851562 Z M 187.5 0.851562 "/>
</g>
</svg>
