<?xml version="1.0" encoding="UTF-8"?>
<svg xmlns="http://www.w3.org/2000/svg" xmlns:xlink="http://www.w3.org/1999/xlink" width="375pt" height="374.999991pt" viewBox="0 0 375 374.999991" version="1.2">
<g id="surface1">
<path style=" stroke:none;fill-rule:nonzero;fill:rgb(100%,100%,100%);fill-opacity:1;" d="M 132.070312 13.753906 C 87.117188 29.199219 48.691406 62.742188 27.421875 105.453125 C 19.929688 120.171875 14.613281 135.617188 11.230469 152.027344 C 3.011719 192.085938 8.8125 235.039062 27.179688 271.476562 C 39.265625 295.367188 56.425781 316.601562 77.449219 333.011719 C 97.269531 348.695312 120.226562 360.519531 144.636719 366.796875 C 175.574219 375 208.199219 374.757812 239.375 367.761719 C 267.410156 361.246094 293.996094 347.972656 315.261719 328.425781 C 337.738281 307.914062 353.691406 280.886719 362.148438 251.6875 C 371.332031 220.078125 372.542969 186.050781 366.742188 153.714844 C 308.738281 153.714844 250.734375 153.714844 192.730469 153.714844 C 192.730469 177.847656 192.730469 201.738281 192.730469 225.867188 C 226.324219 225.867188 259.917969 225.867188 293.511719 225.867188 C 289.644531 248.792969 275.871094 270.027344 256.535156 283.058594 C 244.210938 291.265625 230.191406 296.574219 215.691406 299.226562 C 201.191406 301.640625 185.964844 302.125 171.464844 299.226562 C 156.722656 296.332031 142.703125 290.058594 130.378906 281.371094 C 110.800781 267.617188 95.578125 247.34375 88.085938 224.664062 C 80.109375 201.496094 80.109375 175.917969 88.085938 152.75 C 93.644531 136.582031 102.828125 121.378906 114.910156 109.074219 C 129.894531 93.871094 149.230469 82.769531 170.253906 78.425781 C 188.140625 74.566406 206.992188 75.289062 224.632812 80.597656 C 239.617188 85.183594 253.152344 93.386719 264.511719 104.003906 C 275.871094 92.664062 287.226562 81.324219 298.585938 69.980469 C 304.628906 63.949219 310.914062 58.15625 316.472656 51.882812 C 299.3125 35.957031 279.011719 23.164062 257.019531 14.960938 C 216.898438 0.242188 172.1875 0 132.070312 13.753906 Z M 132.070312 13.753906 "/>
<path style=" stroke:none;fill-rule:nonzero;fill:rgb(91.758728%,26.269531%,20.779419%);fill-opacity:1;" d="M 132.070312 13.753906 C 171.945312 0 216.898438 0.242188 256.777344 14.960938 C 278.769531 23.167969 299.070312 35.714844 316.230469 51.882812 C 310.429688 58.15625 304.144531 63.949219 298.34375 69.980469 C 286.988281 81.324219 275.628906 92.664062 264.269531 104.003906 C 253.152344 93.386719 239.375 85.183594 224.390625 80.597656 C 206.992188 75.289062 187.898438 74.566406 170.011719 78.425781 C 149.230469 83.011719 129.652344 93.871094 114.667969 109.074219 C 102.585938 121.378906 93.402344 136.339844 87.84375 152.75 C 67.542969 137.066406 47.480469 121.378906 27.179688 105.695312 C 48.691406 62.742188 87.117188 29.199219 132.070312 13.753906 Z M 132.070312 13.753906 "/>
<path style=" stroke:none;fill-rule:nonzero;fill:rgb(98.429871%,73.728943%,1.959229%);fill-opacity:1;" d="M 11.230469 151.785156 C 14.613281 135.617188 19.929688 119.933594 27.421875 105.210938 C 47.722656 120.898438 67.785156 136.582031 88.085938 152.269531 C 80.109375 175.433594 80.109375 201.011719 88.085938 224.179688 C 67.785156 239.863281 47.722656 255.550781 27.421875 271.234375 C 8.8125 234.554688 3.253906 191.84375 11.230469 151.785156 Z M 11.230469 151.785156 "/>
<path style=" stroke:none;fill-rule:nonzero;fill:rgb(25.878906%,52.159119%,95.689392%);fill-opacity:1;" d="M 192.488281 153.714844 C 250.492188 153.714844 308.496094 153.714844 366.5 153.714844 C 372.300781 186.292969 371.089844 220.078125 361.90625 251.6875 C 353.449219 280.886719 337.496094 307.671875 315.019531 328.425781 C 295.445312 313.222656 275.871094 298.019531 256.292969 282.820312 C 275.628906 269.789062 289.402344 248.792969 293.269531 225.628906 C 259.675781 225.628906 226.082031 225.628906 192.488281 225.628906 C 192.488281 201.738281 192.488281 177.605469 192.488281 153.714844 Z M 192.488281 153.714844 "/>
<path style=" stroke:none;fill-rule:nonzero;fill:rgb(20.388794%,65.879822%,32.548523%);fill-opacity:1;" d="M 27.421875 271.234375 C 47.722656 255.550781 67.785156 239.863281 88.085938 224.179688 C 95.816406 246.863281 110.800781 267.132812 130.378906 280.886719 C 142.703125 289.574219 156.722656 295.609375 171.464844 298.746094 C 185.964844 301.640625 200.949219 301.398438 215.691406 298.746094 C 230.191406 296.089844 244.210938 290.78125 256.535156 282.578125 C 276.109375 297.78125 295.6875 312.984375 315.261719 328.183594 C 293.996094 347.730469 267.652344 361.003906 239.375 367.519531 C 208.441406 374.515625 175.574219 374.757812 144.636719 366.554688 C 120.226562 360.039062 97.269531 348.457031 77.449219 332.769531 C 56.664062 316.359375 39.265625 294.882812 27.421875 271.234375 Z M 27.421875 271.234375 "/>
</g>
</svg>
